<svg width="554" height="501" viewBox="0 0 554 501" fill="none" xmlns="http://www.w3.org/2000/svg">
<path d="M56.5118 299.024C43.6457 299.024 31.3065 293.913 22.2088 284.815C13.1111 275.717 8 263.378 8 250.512C8 237.646 13.1111 225.306 22.2088 216.209C31.3065 207.111 43.6457 202 56.5118 202H498.04C510.906 202 523.245 207.111 532.343 216.209C541.44 225.306 546.551 237.646 546.551 250.512C546.551 263.378 541.44 275.717 532.343 284.815C523.245 293.913 510.906 299.024 498.04 299.024H56.5118Z" fill="#E6E6E6"/>
<path d="M189.04 208.328H102.68V292.696H189.04V208.328Z" fill="white"/>
<path d="M498.04 208.328H453.395V292.696H498.04C509.227 292.696 519.957 288.252 527.868 280.341C535.779 272.429 540.224 261.7 540.224 250.512C540.224 239.324 535.779 228.594 527.868 220.683C519.957 212.772 509.227 208.328 498.04 208.328V208.328Z" fill="white"/>
<path d="M364.105 208.328H278.33V292.696H364.105V208.328Z" fill="white"/>
<path d="M276.924 208.328H190.446V292.696H276.924V208.328Z" fill="#3B7D5E"/>
<path d="M451.988 208.328H365.511V292.696H451.988V208.328Z" fill="#E6E6E6"/>
<path d="M101.274 208.328H56.5118C45.3239 208.328 34.5942 212.772 26.6831 220.683C18.772 228.594 14.3276 239.324 14.3276 250.512C14.3276 261.7 18.772 272.429 26.6831 280.341C34.5942 288.252 45.3239 292.696 56.5118 292.696H101.274L101.274 208.328Z" fill="#3B7D5E"/>
<path d="M53.4081 266.735L41.6631 251.636L48.4931 246.323L54.0531 253.473L72.8391 233.644L79.1201 239.595L53.4081 266.735Z" fill="white"/>
<path d="M226.363 266.735L214.618 251.636L221.448 246.323L227.008 253.473L245.794 233.644L252.075 239.595L226.363 266.735Z" fill="white"/>
<path d="M396.923 235.478L393.027 239.374L419.199 265.546L423.094 261.65L396.923 235.478Z" fill="white"/>
<path d="M420.576 235.478L394.405 261.65L398.3 265.545L424.472 239.374L420.576 235.478Z" fill="white"/>
<path d="M145.691 275.806C140.685 275.806 135.791 274.321 131.629 271.54C127.467 268.759 124.223 264.806 122.307 260.181C120.391 255.556 119.89 250.467 120.867 245.557C121.843 240.647 124.254 236.138 127.794 232.598C131.333 229.058 135.843 226.648 140.753 225.671C145.663 224.694 150.752 225.196 155.377 227.111C160.002 229.027 163.955 232.271 166.736 236.433C169.517 240.596 171.001 245.489 171.001 250.495C170.994 257.206 168.325 263.639 163.58 268.384C158.835 273.129 152.401 275.798 145.691 275.806ZM145.691 230.809C141.797 230.809 137.991 231.964 134.754 234.127C131.517 236.29 128.993 239.364 127.503 242.962C126.013 246.559 125.624 250.517 126.383 254.336C127.143 258.154 129.018 261.662 131.771 264.415C134.524 267.168 138.032 269.043 141.85 269.803C145.669 270.562 149.627 270.173 153.224 268.683C156.821 267.193 159.896 264.669 162.059 261.432C164.222 258.195 165.377 254.389 165.377 250.495C165.371 245.276 163.295 240.272 159.605 236.582C155.914 232.891 150.91 230.815 145.691 230.809V230.809Z" fill="#E6E6E6"/>
<path d="M321.458 275.806C316.453 275.806 311.559 274.321 307.397 271.54C303.234 268.759 299.99 264.806 298.075 260.181C296.159 255.556 295.658 250.467 296.634 245.557C297.611 240.647 300.021 236.138 303.561 232.598C307.101 229.058 311.611 226.648 316.521 225.671C321.43 224.694 326.519 225.196 331.144 227.111C335.769 229.027 339.722 232.271 342.503 236.433C345.285 240.596 346.769 245.489 346.769 250.495C346.761 257.206 344.092 263.639 339.347 268.384C334.602 273.129 328.169 275.798 321.458 275.806ZM321.458 230.809C317.565 230.809 313.759 231.964 310.521 234.127C307.284 236.29 304.761 239.364 303.271 242.962C301.781 246.559 301.391 250.517 302.151 254.336C302.91 258.154 304.785 261.662 307.538 264.415C310.291 267.168 313.799 269.043 317.618 269.803C321.437 270.562 325.395 270.173 328.992 268.683C332.589 267.193 335.664 264.669 337.827 261.432C339.99 258.195 341.144 254.389 341.144 250.495C341.139 245.276 339.063 240.272 335.372 236.582C331.682 232.891 326.678 230.815 321.458 230.809V230.809Z" fill="#E6E6E6"/>
<path d="M496.523 275.806C491.517 275.806 486.623 274.321 482.461 271.54C478.299 268.759 475.055 264.806 473.139 260.181C471.223 255.556 470.722 250.467 471.699 245.557C472.675 240.647 475.086 236.138 478.626 232.598C482.165 229.058 486.675 226.648 491.585 225.671C496.495 224.694 501.584 225.196 506.209 227.111C510.834 229.027 514.787 232.271 517.568 236.433C520.349 240.596 521.833 245.489 521.833 250.495C521.826 257.206 519.157 263.639 514.412 268.384C509.667 273.129 503.233 275.798 496.523 275.806ZM496.523 230.809C492.629 230.809 488.823 231.964 485.586 234.127C482.349 236.29 479.825 239.364 478.335 242.962C476.845 246.559 476.456 250.517 477.215 254.336C477.975 258.154 479.85 261.662 482.603 264.415C485.356 267.168 488.864 269.043 492.682 269.803C496.501 270.562 500.459 270.173 504.056 268.683C507.654 267.193 510.728 264.669 512.891 261.432C515.054 258.195 516.209 254.389 516.209 250.495C516.203 245.276 514.127 240.272 510.437 236.581C506.746 232.891 501.742 230.815 496.523 230.809V230.809Z" fill="#E6E6E6"/>
</svg>
