<svg width="539" height="98" viewBox="0 0 539 98" fill="none" xmlns="http://www.w3.org/2000/svg">
<path d="M48.5118 97.0236C35.6457 97.0236 23.3065 91.9126 14.2088 82.8148C5.11106 73.7171 0 61.3779 0 48.5118C0 35.6457 5.11106 23.3065 14.2088 14.2088C23.3065 5.11104 35.6457 0 48.5118 0H490.04C502.906 0 515.245 5.11104 524.343 14.2088C533.44 23.3065 538.551 35.6457 538.551 48.5118C538.551 61.3779 533.44 73.7171 524.343 82.8148C515.245 91.9126 502.906 97.0236 490.04 97.0236H48.5118Z" fill="#E6E6E6"/>
<path d="M181.04 6.32764H94.6802V90.696H181.04V6.32764Z" fill="white"/>
<path d="M490.04 6.32764H445.395V90.696H490.04C501.227 90.696 511.957 86.2516 519.868 78.3405C527.779 70.4295 532.224 59.6998 532.224 48.5118C532.224 37.3239 527.779 26.5942 519.868 18.6831C511.957 10.772 501.227 6.32764 490.04 6.32764V6.32764Z" fill="white"/>
<path d="M356.105 6.32764H270.33V90.696H356.105V6.32764Z" fill="white"/>
<path d="M268.924 6.32764H182.446V90.696H268.924V6.32764Z" fill="#3B7D5E"/>
<path d="M443.988 6.32764H357.511V90.696H443.988V6.32764Z" fill="#E6E6E6"/>
<path d="M93.2741 6.32764H48.5118C37.3239 6.32764 26.5942 10.772 18.6831 18.6831C10.772 26.5942 6.32764 37.3239 6.32764 48.5118C6.32764 59.6998 10.772 70.4295 18.6831 78.3405C26.5942 86.2516 37.3239 90.696 48.5118 90.696H93.2741L93.2741 6.32764Z" fill="#3B7D5E"/>
<path d="M45.4081 64.735L33.6631 49.636L40.4931 44.323L46.0531 51.473L64.8391 31.644L71.1201 37.595L45.4081 64.735Z" fill="white"/>
<path d="M218.363 64.735L206.618 49.636L213.448 44.323L219.008 51.473L237.794 31.644L244.075 37.595L218.363 64.735Z" fill="white"/>
<path d="M388.923 33.4784L385.027 37.374L411.199 63.5455L415.094 59.6499L388.923 33.4784Z" fill="white"/>
<path d="M412.576 33.4784L386.405 59.6499L390.3 63.5455L416.472 37.374L412.576 33.4784Z" fill="white"/>
<path d="M137.691 73.8056C132.685 73.8056 127.791 72.3212 123.629 69.54C119.467 66.7589 116.223 62.8059 114.307 58.181C112.391 53.5561 111.89 48.467 112.867 43.5573C113.843 38.6475 116.254 34.1376 119.794 30.5979C123.333 27.0581 127.843 24.6475 132.753 23.6709C137.663 22.6943 142.752 23.1955 147.377 25.1112C152.002 27.0269 155.955 30.271 158.736 34.4333C161.517 38.5956 163.001 43.4891 163.001 48.4951C162.994 55.2055 160.325 61.639 155.58 66.384C150.835 71.129 144.401 73.7981 137.691 73.8056ZM137.691 28.8091C133.797 28.8091 129.991 29.9637 126.754 32.1268C123.517 34.2899 120.993 37.3645 119.503 40.9616C118.013 44.5587 117.624 48.517 118.383 52.3357C119.143 56.1544 121.018 59.6621 123.771 62.4152C126.524 65.1684 130.032 67.0433 133.85 67.8029C137.669 68.5625 141.627 68.1726 145.224 66.6827C148.821 65.1927 151.896 62.6694 154.059 59.4321C156.222 56.1948 157.377 52.3887 157.377 48.4951C157.371 43.2759 155.295 38.2721 151.605 34.5815C147.914 30.8909 142.91 28.815 137.691 28.8091V28.8091Z" fill="#E6E6E6"/>
<path d="M313.458 73.8056C308.453 73.8056 303.559 72.3212 299.397 69.54C295.234 66.7589 291.99 62.8059 290.075 58.181C288.159 53.5561 287.658 48.467 288.634 43.5573C289.611 38.6475 292.021 34.1376 295.561 30.5979C299.101 27.0581 303.611 24.6475 308.521 23.6709C313.43 22.6943 318.519 23.1955 323.144 25.1112C327.769 27.0269 331.722 30.271 334.503 34.4333C337.285 38.5956 338.769 43.4891 338.769 48.4951C338.761 55.2055 336.092 61.639 331.347 66.384C326.602 71.129 320.169 73.7981 313.458 73.8056ZM313.458 28.8091C309.565 28.8091 305.759 29.9637 302.521 32.1268C299.284 34.2899 296.761 37.3645 295.271 40.9616C293.781 44.5587 293.391 48.517 294.151 52.3357C294.91 56.1544 296.785 59.6621 299.538 62.4152C302.291 65.1684 305.799 67.0433 309.618 67.8029C313.437 68.5625 317.395 68.1726 320.992 66.6827C324.589 65.1927 327.664 62.6694 329.827 59.4321C331.99 56.1948 333.144 52.3887 333.144 48.4951C333.139 43.2759 331.063 38.2721 327.372 34.5815C323.682 30.8909 318.678 28.815 313.458 28.8091V28.8091Z" fill="#E6E6E6"/>
<path d="M488.523 73.8056C483.517 73.8056 478.623 72.3212 474.461 69.54C470.299 66.7589 467.055 62.8059 465.139 58.181C463.223 53.5561 462.722 48.467 463.699 43.5573C464.675 38.6475 467.086 34.1376 470.626 30.5979C474.165 27.0581 478.675 24.6475 483.585 23.6709C488.495 22.6943 493.584 23.1955 498.209 25.1112C502.834 27.0269 506.787 30.271 509.568 34.4333C512.349 38.5956 513.833 43.4891 513.833 48.4951C513.826 55.2055 511.157 61.639 506.412 66.384C501.667 71.129 495.233 73.7981 488.523 73.8056ZM488.523 28.8091C484.629 28.8091 480.823 29.9637 477.586 32.1268C474.349 34.29 471.825 37.3645 470.335 40.9616C468.845 44.5588 468.456 48.517 469.215 52.3357C469.975 56.1544 471.85 59.6621 474.603 62.4152C477.356 65.1684 480.864 67.0433 484.682 67.8029C488.501 68.5625 492.459 68.1726 496.056 66.6826C499.654 65.1926 502.728 62.6694 504.891 59.4321C507.054 56.1948 508.209 52.3887 508.209 48.4951C508.203 43.2759 506.127 38.2721 502.437 34.5815C498.746 30.8909 493.742 28.815 488.523 28.8091V28.8091Z" fill="#E6E6E6"/>
</svg>
